<svg width="107" height="67" viewBox="0 0 107 67" fill="none" xmlns="http://www.w3.org/2000/svg">
<path d="M3.68182 46V19.8182H7.70455V46H3.68182ZM5.72727 15.4545C4.94318 15.4545 4.26705 15.1875 3.69886 14.6534C3.14205 14.1193 2.86364 13.4773 2.86364 12.7273C2.86364 11.9773 3.14205 11.3352 3.69886 10.8011C4.26705 10.267 4.94318 10 5.72727 10C6.51136 10 7.18182 10.267 7.73864 10.8011C8.30682 11.3352 8.59091 11.9773 8.59091 12.7273C8.59091 13.4773 8.30682 14.1193 7.73864 14.6534C7.18182 15.1875 6.51136 15.4545 5.72727 15.4545Z" fill="black"/>
<path d="M9.68182 46V19.8182H13.5682V23.7727H13.8409C14.3182 22.4773 15.1818 21.4261 16.4318 20.6193C17.6818 19.8125 19.0909 19.4091 20.6591 19.4091C20.9545 19.4091 21.3239 19.4148 21.767 19.4261C22.2102 19.4375 22.5455 19.4545 22.7727 19.4773V23.5682C22.6364 23.5341 22.3239 23.483 21.8352 23.4148C21.358 23.3352 20.8523 23.2955 20.3182 23.2955C19.0455 23.2955 17.9091 23.5625 16.9091 24.0966C15.9205 24.6193 15.1364 25.3466 14.5568 26.2784C13.9886 27.1989 13.7045 28.25 13.7045 29.4318V46H9.68182Z" fill="black"/>
<path d="M11.6136 55.2727C10.7727 55.2727 10.0511 54.9716 9.44886 54.3693C8.84659 53.767 8.54545 53.0455 8.54545 52.2045C8.54545 51.3636 8.84659 50.642 9.44886 50.0398C10.0511 49.4375 10.7727 49.1364 11.6136 49.1364C12.4545 49.1364 13.1761 49.4375 13.7784 50.0398C14.3807 50.642 14.6818 51.3636 14.6818 52.2045C14.6818 52.7614 14.5398 53.2727 14.2557 53.7386C13.983 54.2045 13.6136 54.5795 13.1477 54.8636C12.6932 55.1364 12.1818 55.2727 11.6136 55.2727Z" fill="black"/>
<path d="M26.4545 46V28.5455H29.1364V46H26.4545ZM27.8182 25.6364C27.2955 25.6364 26.8447 25.4583 26.4659 25.1023C26.0947 24.7462 25.9091 24.3182 25.9091 23.8182C25.9091 23.3182 26.0947 22.8902 26.4659 22.5341C26.8447 22.178 27.2955 22 27.8182 22C28.3409 22 28.7879 22.178 29.1591 22.5341C29.5379 22.8902 29.7273 23.3182 29.7273 23.8182C29.7273 24.3182 29.5379 24.7462 29.1591 25.1023C28.7879 25.4583 28.3409 25.6364 27.8182 25.6364ZM34.0483 46V28.5455H36.6392V31.1818H36.821C37.1392 30.3182 37.715 29.6174 38.5483 29.0795C39.3816 28.5417 40.321 28.2727 41.3665 28.2727C41.5634 28.2727 41.8097 28.2765 42.1051 28.2841C42.4006 28.2917 42.6241 28.303 42.7756 28.3182V31.0455C42.6847 31.0227 42.4763 30.9886 42.1506 30.9432C41.8324 30.8902 41.4953 30.8636 41.1392 30.8636C40.2907 30.8636 39.5331 31.0417 38.8665 31.3977C38.2074 31.7462 37.6847 32.2311 37.2983 32.8523C36.9195 33.4659 36.7301 34.1667 36.7301 34.9545V46H34.0483ZM60.7585 28.5455L54.304 46H51.5767L45.1222 28.5455H48.0312L52.8494 42.4545H53.0312L57.8494 28.5455H60.7585ZM68.9034 46.4091C67.7973 46.4091 66.7936 46.2008 65.892 45.7841C64.9905 45.3598 64.2746 44.75 63.7443 43.9545C63.214 43.1515 62.9489 42.1818 62.9489 41.0455C62.9489 40.0455 63.1458 39.2348 63.5398 38.6136C63.9337 37.9848 64.4602 37.4924 65.1193 37.1364C65.7784 36.7803 66.5057 36.5152 67.3011 36.3409C68.1042 36.1591 68.911 36.0152 69.7216 35.9091C70.7822 35.7727 71.642 35.6705 72.3011 35.6023C72.9678 35.5265 73.4527 35.4015 73.7557 35.2273C74.0663 35.053 74.2216 34.75 74.2216 34.3182V34.2273C74.2216 33.1061 73.9148 32.2348 73.3011 31.6136C72.6951 30.9924 71.7746 30.6818 70.5398 30.6818C69.2595 30.6818 68.2557 30.9621 67.5284 31.5227C66.8011 32.0833 66.2898 32.6818 65.9943 33.3182L63.4489 32.4091C63.9034 31.3485 64.5095 30.5227 65.267 29.9318C66.0322 29.3333 66.8655 28.9167 67.767 28.6818C68.6761 28.4394 69.5701 28.3182 70.4489 28.3182C71.0095 28.3182 71.6534 28.3864 72.3807 28.5227C73.1155 28.6515 73.8239 28.9205 74.5057 29.3295C75.1951 29.7386 75.767 30.3561 76.2216 31.1818C76.6761 32.0076 76.9034 33.1136 76.9034 34.5V46H74.2216V43.6364H74.0852C73.9034 44.0152 73.6004 44.4205 73.1761 44.8523C72.7519 45.2841 72.1875 45.6515 71.483 45.9545C70.7784 46.2576 69.9186 46.4091 68.9034 46.4091ZM69.3125 44C70.3731 44 71.267 43.7917 71.9943 43.375C72.7292 42.9583 73.2822 42.4205 73.6534 41.7614C74.0322 41.1023 74.2216 40.4091 74.2216 39.6818V37.2273C74.108 37.3636 73.858 37.4886 73.4716 37.6023C73.0928 37.7083 72.6534 37.803 72.1534 37.8864C71.661 37.9621 71.1799 38.0303 70.7102 38.0909C70.2481 38.1439 69.8731 38.1894 69.5852 38.2273C68.8883 38.3182 68.2367 38.4659 67.6307 38.6705C67.0322 38.8674 66.5473 39.1667 66.1761 39.5682C65.8125 39.9621 65.6307 40.5 65.6307 41.1818C65.6307 42.1136 65.9754 42.8182 66.6648 43.2955C67.3617 43.7652 68.2443 44 69.3125 44ZM84.4801 35.5V46H81.7983V28.5455H84.3892V31.2727H84.6165C85.0256 30.3864 85.6468 29.6742 86.4801 29.1364C87.3134 28.5909 88.3892 28.3182 89.7074 28.3182C90.8892 28.3182 91.9233 28.5606 92.8097 29.0455C93.696 29.5227 94.3854 30.25 94.8778 31.2273C95.3703 32.197 95.6165 33.4242 95.6165 34.9091V46H92.9347V35.0909C92.9347 33.7197 92.5786 32.6515 91.8665 31.8864C91.1544 31.1136 90.1771 30.7273 88.9347 30.7273C88.0786 30.7273 87.3134 30.9129 86.6392 31.2841C85.9725 31.6553 85.446 32.197 85.0597 32.9091C84.6733 33.6212 84.4801 34.4848 84.4801 35.5ZM102.472 46.1818C101.911 46.1818 101.43 45.9811 101.028 45.5795C100.627 45.178 100.426 44.697 100.426 44.1364C100.426 43.5758 100.627 43.0947 101.028 42.6932C101.43 42.2917 101.911 42.0909 102.472 42.0909C103.032 42.0909 103.513 42.2917 103.915 42.6932C104.316 43.0947 104.517 43.5758 104.517 44.1364C104.517 44.5076 104.422 44.8485 104.233 45.1591C104.051 45.4697 103.805 45.7197 103.494 45.9091C103.191 46.0909 102.85 46.1818 102.472 46.1818Z" fill="black"/>
</svg>
