<svg width="108" height="67" viewBox="0 0 108 67" fill="none" xmlns="http://www.w3.org/2000/svg">
<path d="M4.1867 46V19.8182H8.20943V46H4.1867ZM6.23216 15.4545C5.44806 15.4545 4.77193 15.1875 4.20375 14.6534C3.64693 14.1193 3.36852 13.4773 3.36852 12.7273C3.36852 11.9773 3.64693 11.3352 4.20375 10.8011C4.77193 10.267 5.44806 10 6.23216 10C7.01625 10 7.6867 10.267 8.24352 10.8011C8.8117 11.3352 9.09579 11.9773 9.09579 12.7273C9.09579 13.4773 8.8117 14.1193 8.24352 14.6534C7.6867 15.1875 7.01625 15.4545 6.23216 15.4545Z" fill="#F0F5F9"/>
<path d="M10.1867 46V19.8182H14.0731V23.7727H14.3458C14.8231 22.4773 15.6867 21.4261 16.9367 20.6193C18.1867 19.8125 19.5958 19.4091 21.164 19.4091C21.4594 19.4091 21.8287 19.4148 22.2719 19.4261C22.7151 19.4375 23.0503 19.4545 23.2776 19.4773V23.5682C23.1412 23.5341 22.8287 23.483 22.3401 23.4148C21.8628 23.3352 21.3572 23.2955 20.8231 23.2955C19.5503 23.2955 18.414 23.5625 17.414 24.0966C16.4253 24.6193 15.6412 25.3466 15.0617 26.2784C14.4935 27.1989 14.2094 28.25 14.2094 29.4318V46H10.1867Z" fill="#F0F5F9"/>
<path d="M12.1185 55.2727C11.2776 55.2727 10.556 54.9716 9.95375 54.3693C9.35147 53.767 9.05034 53.0455 9.05034 52.2045C9.05034 51.3636 9.35147 50.642 9.95375 50.0398C10.556 49.4375 11.2776 49.1364 12.1185 49.1364C12.9594 49.1364 13.681 49.4375 14.2833 50.0398C14.8856 50.642 15.1867 51.3636 15.1867 52.2045C15.1867 52.7614 15.0447 53.2727 14.7606 53.7386C14.4878 54.2045 14.1185 54.5795 13.6526 54.8636C13.1981 55.1364 12.6867 55.2727 12.1185 55.2727Z" fill="#F0F5F9"/>
<path d="M26.9594 46V28.5455H29.6412V46H26.9594ZM28.3231 25.6364C27.8003 25.6364 27.3496 25.4583 26.9708 25.1023C26.5996 24.7462 26.414 24.3182 26.414 23.8182C26.414 23.3182 26.5996 22.8902 26.9708 22.5341C27.3496 22.178 27.8003 22 28.3231 22C28.8458 22 29.2928 22.178 29.664 22.5341C30.0428 22.8902 30.2322 23.3182 30.2322 23.8182C30.2322 24.3182 30.0428 24.7462 29.664 25.1023C29.2928 25.4583 28.8458 25.6364 28.3231 25.6364ZM34.5532 46V28.5455H37.1441V31.1818H37.3259C37.6441 30.3182 38.2198 29.6174 39.0532 29.0795C39.8865 28.5417 40.8259 28.2727 41.8714 28.2727C42.0683 28.2727 42.3145 28.2765 42.61 28.2841C42.9055 28.2917 43.1289 28.303 43.2805 28.3182V31.0455C43.1895 31.0227 42.9812 30.9886 42.6555 30.9432C42.3373 30.8902 42.0001 30.8636 41.6441 30.8636C40.7956 30.8636 40.038 31.0417 39.3714 31.3977C38.7123 31.7462 38.1895 32.2311 37.8032 32.8523C37.4244 33.4659 37.235 34.1667 37.235 34.9545V46H34.5532ZM61.2634 28.5455L54.8089 46H52.0816L45.627 28.5455H48.5361L53.3543 42.4545H53.5361L58.3543 28.5455H61.2634ZM69.4083 46.4091C68.3022 46.4091 67.2984 46.2008 66.3969 45.7841C65.4954 45.3598 64.7795 44.75 64.2492 43.9545C63.7189 43.1515 63.4537 42.1818 63.4537 41.0455C63.4537 40.0455 63.6507 39.2348 64.0447 38.6136C64.4386 37.9848 64.9651 37.4924 65.6242 37.1364C66.2833 36.7803 67.0106 36.5152 67.806 36.3409C68.609 36.1591 69.4159 36.0152 70.2265 35.9091C71.2871 35.7727 72.1469 35.6705 72.806 35.6023C73.4727 35.5265 73.9575 35.4015 74.2606 35.2273C74.5712 35.053 74.7265 34.75 74.7265 34.3182V34.2273C74.7265 33.1061 74.4197 32.2348 73.806 31.6136C73.2 30.9924 72.2795 30.6818 71.0447 30.6818C69.7644 30.6818 68.7606 30.9621 68.0333 31.5227C67.306 32.0833 66.7947 32.6818 66.4992 33.3182L63.9537 32.4091C64.4083 31.3485 65.0144 30.5227 65.7719 29.9318C66.5371 29.3333 67.3704 28.9167 68.2719 28.6818C69.181 28.4394 70.075 28.3182 70.9537 28.3182C71.5144 28.3182 72.1583 28.3864 72.8856 28.5227C73.6204 28.6515 74.3287 28.9205 75.0106 29.3295C75.7 29.7386 76.2719 30.3561 76.7265 31.1818C77.181 32.0076 77.4083 33.1136 77.4083 34.5V46H74.7265V43.6364H74.5901C74.4083 44.0152 74.1053 44.4205 73.681 44.8523C73.2568 45.2841 72.6924 45.6515 71.9878 45.9545C71.2833 46.2576 70.4234 46.4091 69.4083 46.4091ZM69.8174 44C70.878 44 71.7719 43.7917 72.4992 43.375C73.234 42.9583 73.7871 42.4205 74.1583 41.7614C74.5371 41.1023 74.7265 40.4091 74.7265 39.6818V37.2273C74.6128 37.3636 74.3628 37.4886 73.9765 37.6023C73.5977 37.7083 73.1583 37.803 72.6583 37.8864C72.1659 37.9621 71.6848 38.0303 71.2151 38.0909C70.753 38.1439 70.378 38.1894 70.0901 38.2273C69.3931 38.3182 68.7416 38.4659 68.1356 38.6705C67.5371 38.8674 67.0522 39.1667 66.681 39.5682C66.3174 39.9621 66.1356 40.5 66.1356 41.1818C66.1356 42.1136 66.4803 42.8182 67.1697 43.2955C67.8666 43.7652 68.7492 44 69.8174 44ZM84.985 35.5V46H82.3032V28.5455H84.8941V31.2727H85.1214C85.5305 30.3864 86.1517 29.6742 86.985 29.1364C87.8183 28.5909 88.8941 28.3182 90.2123 28.3182C91.3941 28.3182 92.4282 28.5606 93.3145 29.0455C94.2009 29.5227 94.8903 30.25 95.3827 31.2273C95.8751 32.197 96.1214 33.4242 96.1214 34.9091V46H93.4395V35.0909C93.4395 33.7197 93.0835 32.6515 92.3714 31.8864C91.6592 31.1136 90.682 30.7273 89.4395 30.7273C88.5835 30.7273 87.8183 30.9129 87.1441 31.2841C86.4774 31.6553 85.9509 32.197 85.5645 32.9091C85.1782 33.6212 84.985 34.4848 84.985 35.5ZM102.976 46.1818C102.416 46.1818 101.935 45.9811 101.533 45.5795C101.132 45.178 100.931 44.697 100.931 44.1364C100.931 43.5758 101.132 43.0947 101.533 42.6932C101.935 42.2917 102.416 42.0909 102.976 42.0909C103.537 42.0909 104.018 42.2917 104.42 42.6932C104.821 43.0947 105.022 43.5758 105.022 44.1364C105.022 44.5076 104.927 44.8485 104.738 45.1591C104.556 45.4697 104.31 45.7197 103.999 45.9091C103.696 46.0909 103.355 46.1818 102.976 46.1818Z" fill="#F0F5F9"/>
</svg>
